<svg width="18.153809" height="21.120117" viewBox="0 0 18.1538 21.1201" fill="none" xmlns="http://www.w3.org/2000/svg" xmlns:xlink="http://www.w3.org/1999/xlink">
	<desc>
			Created with Pixso.
	</desc>
	<defs/>
	<path id="Vector" d="M18.15 15.49C17.65 16.59 17.41 17.08 16.78 18.05C15.89 19.41 14.63 21.1 13.07 21.11C11.69 21.12 11.33 20.21 9.46 20.22C7.58 20.23 7.19 21.13 5.8 21.12C4.25 21.1 3.06 19.58 2.16 18.22C-0.33 14.43 -0.59 9.97 0.95 7.61C2.04 5.93 3.77 4.94 5.39 4.94C7.04 4.94 8.07 5.85 9.44 5.85C10.76 5.85 11.57 4.94 13.48 4.94C14.91 4.94 16.44 5.73 17.53 7.08C13.97 9.04 14.54 14.13 18.15 15.49ZM12.03 3.42C12.72 2.53 13.25 1.28 13.06 0C11.92 0.07 10.6 0.79 9.83 1.73C9.12 2.58 8.55 3.85 8.77 5.08C10.01 5.11 11.29 4.38 12.03 3.42Z" fill="#F2F2F2" fill-opacity="0.400000" fill-rule="nonzero"/>
</svg>
