<svg width="19.200195" height="19.853516" viewBox="0 0 19.2002 19.8535" fill="none" xmlns="http://www.w3.org/2000/svg" xmlns:xlink="http://www.w3.org/1999/xlink">
	<desc>
			Created with Pixso.
	</desc>
	<defs/>
	<path id="Vector" d="M3.53 19.31L12.73 14.12L10.75 11.93L3.53 19.31ZM0.17 0.2C0.06 0.39 0 0.6 0 0.85L0 19C0 19.33 0.12 19.62 0.31 19.85L9.46 10.5L0.17 0.2ZM18.57 9.03L15.36 7.22L12.1 10.55L14.44 13.15L18.57 10.82C18.74 10.73 18.89 10.61 19 10.45C19.11 10.29 19.17 10.11 19.2 9.92C19.17 9.73 19.11 9.55 19 9.4C18.89 9.24 18.74 9.11 18.57 9.03ZM13.63 6.24L2.57 0L10.81 9.13L13.63 6.24Z" fill="#F2F2F2" fill-opacity="0.400000" fill-rule="nonzero"/>
</svg>
